<?xml version="1.0" encoding="utf-8"?>
<!-- Generator: Adobe Illustrator 24.3.0, SVG Export Plug-In . SVG Version: 6.00 Build 0)  -->
<svg version="1.1" id="레이어_1" xmlns="http://www.w3.org/2000/svg" xmlns:xlink="http://www.w3.org/1999/xlink" x="0px"
	 y="0px" viewBox="0 0 134.1 150" style="enable-background:new 0 0 134.1 150;" xml:space="preserve">
<style type="text/css">
	.st0{fill:none;stroke:#FFFFFF;stroke-linecap:round;stroke-miterlimit:10;}
	.st1{fill:#FFFFFF;}
</style>
<g>
	<path class="st0" d="M134,8.5"/>
</g>
<g>
	<path class="st0" d="M146.8,132.2"/>
</g>
<g>
	<g>
		<path class="st1" d="M67.1,102.8c-15.4,0-27.9-12.5-27.9-27.9s12.5-27.9,27.9-27.9S94.9,59.6,94.9,75S82.4,102.8,67.1,102.8z
			 M67.1,60.3c-8.1,0-14.6,6.5-14.6,14.6S59,89.6,67.1,89.6S81.7,83,81.7,75S75.1,60.3,67.1,60.3z"/>
	</g>
	<g>
		<path class="st1" d="M67.1,150.1c-3.7,0-6.5-2.9-6.5-6.5v-17.9c0-3.7,2.9-6.5,6.5-6.5s6.5,2.9,6.5,6.5v17.9
			C73.6,147,70.7,150.1,67.1,150.1z"/>
	</g>
	<g>
		<path class="st1" d="M67.1,30.9c-3.7,0-6.5-2.9-6.5-6.5V6.5c0-3.7,2.9-6.5,6.5-6.5s6.5,2.9,6.5,6.5v17.9
			C73.6,28.1,70.7,30.9,67.1,30.9z"/>
	</g>
	<g>
		<path class="st1" d="M6.5,113.4c-2.3,0-4.6-1.3-5.8-3.5c-1.7-3.3-0.4-7.1,2.7-8.8l15.8-8.3c3.3-1.7,7.1-0.4,8.8,2.7
			c1.7,3.3,0.4,7.1-2.7,8.8l-15.8,8.3C8.6,113.2,7.5,113.4,6.5,113.4z"/>
	</g>
	<g>
		<path class="st1" d="M111.8,58c-2.3,0-4.6-1.3-5.8-3.5c-1.7-3.3-0.4-7.1,2.7-8.8l15.8-8.3c3.3-1.7,7.1-0.4,8.8,2.7
			c1.7,3.3,0.4,7.1-2.7,8.8l-15.8,8.3C114,57.8,113,58,111.8,58z"/>
	</g>
	<g>
		<path class="st1" d="M24.2,54.8c-1.2,0-2.3-0.4-3.5-1L5.6,44.4c-3.1-1.9-4-6-2.1-9c1.9-3.1,6-4,9-2.1l15.2,9.4c3.1,1.9,4,6,2.1,9
			C28.4,53.8,26.3,54.8,24.2,54.8z"/>
	</g>
	<g>
		<path class="st1" d="M125.1,117.8c-1.2,0-2.3-0.4-3.5-1l-15.2-9.4c-3.1-1.9-4-6-2.1-9c1.9-3.1,6-4,9-2.1l15.2,9.4
			c3.1,1.9,4,6,2.1,9C129.5,116.7,127.4,117.8,125.1,117.8z"/>
	</g>
</g>
</svg>
