<?xml version="1.0" encoding="utf-8"?>
<!-- Generator: Adobe Illustrator 24.3.0, SVG Export Plug-In . SVG Version: 6.00 Build 0)  -->
<svg version="1.1" id="레이어_1" xmlns="http://www.w3.org/2000/svg" xmlns:xlink="http://www.w3.org/1999/xlink" x="0px"
	 y="0px" viewBox="0 0 150 150" style="enable-background:new 0 0 150 150;" xml:space="preserve">
<style type="text/css">
	.st0{fill:#FFFFFF;}
</style>
<g>
	<path class="st0" d="M59.5,115.4C27.9,115.4,2.2,89.6,2.2,58S27.9,0.7,59.5,0.7s57.4,25.7,57.4,57.4
		C116.9,89.6,91.2,115.4,59.5,115.4z M59.5,15.3C36,15.3,16.9,34.5,16.9,58s19.2,42.7,42.7,42.7s42.7-19.2,42.7-42.7
		S83.1,15.3,59.5,15.3z"/>
</g>
<g>
	<path class="st0" d="M107.5,110c-3,3-6.2,5.4-9.4,7.4l32.9,32.9l16.8-16.8l-32.9-32.9C112.8,103.8,110.4,107.1,107.5,110z"/>
</g>
</svg>
