<?xml version="1.0" encoding="utf-8"?>
<!-- Generator: Adobe Illustrator 24.3.0, SVG Export Plug-In . SVG Version: 6.00 Build 0)  -->
<svg version="1.1" id="레이어_1" xmlns="http://www.w3.org/2000/svg" xmlns:xlink="http://www.w3.org/1999/xlink" x="0px"
	 y="0px" viewBox="0 0 150 150" style="enable-background:new 0 0 150 150;" xml:space="preserve">
<style type="text/css">
	.st0{fill:#FFFFFF;}
</style>
<path class="st0" d="M101.5,5.1c-10,0-19.3,3.1-26.6,8.4c-7.3-5.4-16.6-8.4-26.7-8.4C36.1,5.1,24.6,9.5,16,17.5
	C9.1,23.9,1,35.5,1,54.4c0,20.9,11.5,52.8,66.3,86.6l7.7,4.8l7.7-4.8c54.8-33.8,66.3-65.8,66.3-86.6C148.9,22.1,125.1,5.1,101.5,5.1
	z M74.9,128.6c-44.2-27.3-59.3-54-59.3-74.1c0-23.5,16.7-34.6,32.6-34.6c11.5,0,22.6,5.8,26.7,17c4.1-11.2,15.1-17,26.6-17
	c16,0,32.7,11.2,32.7,34.6C134.3,74.5,119.1,101.3,74.9,128.6z"/>
</svg>
