<?xml version="1.0" encoding="utf-8"?>
<!-- Generator: Adobe Illustrator 24.3.0, SVG Export Plug-In . SVG Version: 6.00 Build 0)  -->
<svg version="1.1" id="레이어_1" xmlns="http://www.w3.org/2000/svg" xmlns:xlink="http://www.w3.org/1999/xlink" x="0px"
	 y="0px" viewBox="0 0 143.5 150" style="enable-background:new 0 0 143.5 150;" xml:space="preserve">
<style type="text/css">
	.st0{fill:none;stroke:#FFFFFF;stroke-linecap:round;stroke-miterlimit:10;}
	.st1{fill:#FFFFFF;}
	.st2{fill:none;stroke:#FFFFFF;stroke-linecap:round;stroke-linejoin:round;stroke-miterlimit:10;}
</style>
<g>
	<path class="st0" d="M121,40.4"/>
</g>
<g>
	<path class="st1" d="M75.3,150c-41.3,0-75-33.7-75-75S34,0,75.3,0c3.8,0,7.5,0.2,11.1,0.8c2.2,0.4,4,1.8,5,3.6c1,2,1,4.4,0,6.2
		c-0.2,0.4-19.8,37.9-5.8,63.1c7.9,14.1,25,22.2,51.2,24l0,0c2.6,0.2,5,1.8,6,4.2c1.8,4-0.8,7.3-1.8,8.5
		C128.1,134.9,102.9,150,75.3,150z M75.1,13.9c-33.7,0-60.9,27.4-60.9,61.1s27.4,61.1,61.1,61.1c20,0,38.3-9.7,49.8-25.6
		c-25.2-3.8-42.5-13.9-51.4-30C60.8,57.5,69.2,28.4,75.1,13.9z"/>
</g>
<g>
	<path class="st0" d="M151.5,135.1"/>
</g>
<g>
	<path class="st2" d="M271.1,34.7"/>
</g>
</svg>
