<?xml version="1.0" encoding="utf-8"?>
<!-- Generator: Adobe Illustrator 24.3.0, SVG Export Plug-In . SVG Version: 6.00 Build 0)  -->
<svg version="1.1" id="레이어_1" xmlns="http://www.w3.org/2000/svg" xmlns:xlink="http://www.w3.org/1999/xlink" x="0px"
	 y="0px" viewBox="0 0 150 150" style="enable-background:new 0 0 150 150;" xml:space="preserve">
<style type="text/css">
	.st0{fill:#FFFFFF;}
	.st1{fill:#FFFFFF;stroke:#000000;stroke-width:2.5;stroke-linejoin:round;stroke-miterlimit:10;}
</style>
<g>
	<path class="st0" d="M74.9,20.6c15.4,0,27.9,12.5,27.9,27.9S90.3,76.3,74.9,76.3S47.1,63.8,47.1,48.5S59.6,20.6,74.9,20.6
		 M74.9,5.9c-23.5,0-42.5,19-42.5,42.5S51.5,91,74.9,91s42.6-19.1,42.6-42.5S98.4,5.9,74.9,5.9L74.9,5.9z"/>
</g>
<g>
	<path class="st1" d="M101.7,104.2"/>
</g>
<g>
	<path class="st0" d="M136.6,145H13.3c-2,0-3.9-0.8-5.3-2.2c-1.4-1.4-2.1-3.4-2.1-5.4c0.8-21.3,8.6-41.1,22-55.6l10.8,10
		c-9.5,10.2-15.6,23.7-17.5,38.6h107.3c-2-15.1-8.5-29.1-18.2-39.3L121,80.9c14,14.6,22.1,34.7,22.9,56.5c0.1,2-0.7,3.9-2.1,5.4
		C140.5,144.2,138.6,145,136.6,145z"/>
</g>
</svg>
