<?xml version="1.0" encoding="utf-8"?>
<!-- Generator: Adobe Illustrator 21.0.0, SVG Export Plug-In . SVG Version: 6.00 Build 0)  -->
<svg version="1.1" id="레이어_1" xmlns="http://www.w3.org/2000/svg" xmlns:xlink="http://www.w3.org/1999/xlink" x="0px"
	 y="0px" viewBox="0 0 806.4 720.4" style="enable-background:new 0 0 806.4 720.4;" xml:space="preserve">
<style type="text/css">
	.st0{fill:#06FFD2;}
	.st1{fill:#FFFFFF;}
</style>
<g>
	<path class="st0" d="M96.7,719.9c-30.8-26.6-61.4-53-93.1-80.3c6.3-4.2,11.9-7.9,17.5-11.6c43.1-28.5,84-59.7,115.8-100.9
		c39.4-51,62.7-108,60.7-173.6c-0.3-9,0-18,0-27.6c43.6,0,86.5,0,131.4,0c-5.7,89.7,13.1,171.9,76.5,241.3
		c59.6-70.2,84.2-150.5,75.7-241.4c45,0,87.8,0,131.9,0c0,5,0.2,9.6,0,14.2c-4.6,98.5,38.2,175.2,110.4,237.6
		c25.8,22.3,54.3,41.7,82.5,63.1c-30.2,25.9-61.3,52.5-92.5,79.2c-65.5-39.5-119.7-90.1-163.8-153.7c-2.2,3.2-3.9,5.6-5.5,8.1
		c-34.6,56.9-81.9,101.7-134.9,140.9c-2.2,1.6-7.8,1.2-10.2-0.5c-53.5-39.2-100.1-85.1-135-142c-1.1-1.8-2.4-3.6-4.3-6.4
		C218.1,631.2,162.3,680.4,96.7,719.9z"/>
	<path class="st1" d="M383.7,150c0,38.4,0,76.6,0,115.7c-104.8,0-209.5,0-314.8,0c0-38.5,0-76.7,0-115.7
		C173.6,150,278.4,150,383.7,150z"/>
	<path class="st1" d="M421.9,265.9c0-38.9,0-77.1,0-116.1c104,0,208,0,312.5,0c0,38.5,0,77,0,116.1
		C630.2,265.9,526.3,265.9,421.9,265.9z"/>
	<path class="st0" d="M420.9,33.4C525.6,28.2,629.2,23,733.7,17.8c0,28.9,0,57.1,0,86.8c-104.2-5.2-208.2-10.4-312.8-15.6
		C420.9,70.3,420.9,52.4,420.9,33.4z"/>
	<path class="st1" d="M126.9,119.6c-32.1,0-58.4-26.3-58.4-58.2c0-32.5,26.6-58.9,59-58.6C159.8,3,185.8,29,185.9,61
		C185.9,93.6,159.7,119.6,126.9,119.6z"/>
	<path class="st0" d="M325.2,119.2c-32.4,0.1-58.2-25.5-58.3-57.8C266.8,29,292.5,3.2,324.8,3.2c32.6,0,58.1,25.4,58.2,57.8
		C383,93.6,357.7,119.1,325.2,119.2z"/>
</g>
</svg>
